<?xml version="1.0" standalone="no"?>
<!DOCTYPE svg PUBLIC "-//W3C//DTD SVG 20010904//EN"
 "http://www.w3.org/TR/2001/REC-SVG-20010904/DTD/svg10.dtd">
<svg version="1.0" xmlns="http://www.w3.org/2000/svg"
 width="711.000000pt" height="618.000000pt" viewBox="0 0 711.000000 618.000000"
 preserveAspectRatio="xMidYMid meet">

<g transform="translate(0.000000,618.000000) scale(0.100000,-0.100000)"
fill="#000000" stroke="none">
<path d="M0 3090 l0 -3090 3555 0 3555 0 0 3090 0 3090 -3555 0 -3555 0 0
-3090z m6038 2374 c55 -38 52 63 52 -1691 0 -1557 -1 -1620 -19 -1653 -25 -48
-63 -59 -206 -59 -133 -1 -179 13 -202 59 -8 16 -13 68 -13 139 l0 113 -72
-74 c-166 -168 -355 -254 -613 -278 -333 -31 -632 71 -832 282 -131 139 -235
371 -277 616 -37 214 -39 554 -5 761 82 494 330 803 725 903 78 20 113 23 289
22 174 0 210 -3 280 -22 157 -44 305 -131 420 -248 l70 -71 3 541 c1 297 2
557 2 577 0 28 7 44 32 68 l32 31 156 0 c125 0 160 -3 178 -16z m-2797 -44
c39 -21 49 -62 49 -194 0 -69 -5 -136 -11 -149 -25 -54 13 -52 -894 -54 l-840
-2 0 -523 0 -523 785 -5 c886 -6 828 0 851 -82 15 -56 8 -246 -10 -274 -33
-51 -1 -49 -841 -51 l-785 -2 0 -543 0 -543 860 -5 c473 -3 868 -9 877 -13 40
-20 48 -51 48 -191 l0 -136 -29 -32 -29 -33 -1049 -3 c-984 -2 -1050 -1 -1083
15 -19 10 -40 29 -47 43 -10 20 -13 366 -13 1623 0 1738 -3 1648 53 1675 30
15 2080 16 2108 2z m2847 -3792 c8 -8 12 -53 12 -137 0 -102 -3 -128 -17 -143
-15 -17 -106 -18 -2496 -18 -2294 0 -2482 1 -2499 17 -16 14 -18 33 -18 143 0
85 4 130 12 138 17 17 4989 17 5006 0z m-4788 -683 c0 -12 -16 -15 -83 -15
l-83 0 1 -32 1 -33 67 -3 c51 -2 67 -6 67 -17 0 -12 -15 -15 -64 -15 l-65 0
-3 -47 c-3 -46 -4 -48 -35 -51 l-33 -3 0 115 0 116 115 0 c96 0 115 -3 115
-15z m467 -70 c1 -44 2 -85 2 -92 1 -6 13 -13 28 -15 17 -2 29 -10 31 -20 3
-16 -7 -18 -97 -18 -83 0 -101 3 -101 15 0 8 5 16 10 16 6 1 15 3 20 4 6 1 17
3 25 4 12 1 15 17 15 81 0 64 -3 80 -15 80 -8 0 -15 7 -15 16 0 12 10 14 48
12 l47 -3 2 -80z m263 -16 c0 -98 1 -101 21 -96 27 7 49 -1 49 -19 0 -11 -21
-14 -100 -14 -92 0 -100 2 -100 19 0 16 6 19 30 16 l30 -4 0 84 c0 69 -3 85
-15 85 -8 0 -15 7 -15 15 0 11 12 15 50 15 l50 0 0 -101z m530 71 c0 -28 3
-30 36 -30 28 0 35 -3 32 -17 -2 -12 -14 -19 -36 -21 l-32 -3 0 -65 0 -65 -32
3 c-32 3 -33 4 -34 53 -1 28 -2 56 -3 63 -1 6 -14 12 -31 12 -23 0 -30 4 -30
20 0 16 7 20 35 20 32 0 34 2 30 30 -3 28 -2 30 31 30 31 0 34 -3 34 -30z
m700 -35 l0 -65 30 0 c20 0 30 5 30 15 0 8 7 15 16 15 9 0 18 9 21 20 4 14 14
20 34 20 22 0 29 -5 29 -20 0 -11 -7 -20 -15 -20 -8 0 -15 -7 -15 -15 0 -8 -7
-15 -15 -15 -8 0 -15 -7 -15 -15 0 -8 7 -15 15 -15 8 0 15 -9 15 -20 0 -13 5
-18 15 -14 10 4 15 0 15 -15 0 -17 -6 -21 -30 -21 -19 0 -30 5 -30 14 0 7 -9
16 -20 19 -11 3 -20 12 -20 21 0 11 -9 16 -30 16 -28 0 -30 -3 -30 -35 0 -33
-2 -35 -35 -35 l-35 0 0 115 0 115 35 0 35 0 0 -65z m690 -50 l0 -116 -97 3
c-75 2 -97 6 -95 16 1 8 -7 16 -18 19 -16 4 -20 14 -20 49 0 32 4 44 14 44 8
0 18 9 21 20 5 17 15 20 71 20 l64 0 0 30 c0 27 3 30 30 30 l30 0 0 -115z
m1000 16 l0 -98 26 5 c26 5 48 -13 38 -30 -3 -4 -48 -8 -100 -8 -88 0 -94 1
-94 20 0 12 6 20 13 19 45 -6 47 -2 47 81 0 64 -3 80 -15 80 -8 0 -15 7 -15
15 0 11 12 15 50 15 l50 0 0 -99z m-3550 -26 c0 -36 4 -65 10 -66 6 0 24 -1
40 -1 17 0 35 1 40 1 6 1 10 30 10 67 l0 65 33 -3 32 -3 3 -82 3 -83 -101 0
c-85 0 -100 2 -100 16 0 9 -9 18 -20 21 -17 5 -20 14 -20 62 0 66 3 71 42 71
28 0 28 0 28 -65z m928 48 c-3 -15 -16 -19 -66 -21 -46 -2 -62 -7 -62 -17 0
-12 15 -15 65 -15 51 0 65 -3 65 -15 0 -8 7 -15 15 -15 8 0 15 -9 15 -21 0
-12 -4 -17 -11 -14 -6 4 -13 -2 -16 -14 -5 -20 -12 -21 -104 -21 -90 0 -99 2
-99 19 0 17 8 18 83 17 67 -1 82 2 82 14 0 12 -15 16 -67 18 -52 2 -68 6 -68
17 0 8 -7 15 -15 15 -8 0 -15 7 -15 15 0 8 7 15 15 15 8 0 15 9 15 20 0 18 7
20 86 20 76 0 85 -2 82 -17z m532 -3 c0 -11 7 -20 15 -20 12 0 15 -14 15 -65
l0 -65 -100 0 c-93 0 -100 1 -100 20 0 13 -5 18 -15 14 -10 -4 -15 0 -15 15 0
12 6 21 15 21 8 0 15 7 15 15 0 12 14 15 70 15 55 0 70 3 70 15 0 11 -16 15
-67 17 -55 2 -68 6 -71 21 -3 15 6 17 82 17 79 0 86 -2 86 -20z m298 3 c-3
-15 -16 -18 -86 -21 l-83 -3 3 -47 3 -47 80 0 c67 -1 80 -4 83 -18 3 -15 -8
-17 -96 -17 -93 0 -100 1 -105 21 -3 12 -10 18 -16 14 -7 -4 -11 11 -11 44 0
39 4 51 15 51 8 0 15 9 15 20 0 19 7 20 101 20 90 0 100 -2 97 -17z m1032 -3
c0 -11 7 -20 15 -20 10 0 15 -10 15 -30 l0 -30 -86 0 c-74 0 -85 -2 -82 -16 2
-13 16 -17 68 -18 53 -1 65 -4 68 -18 3 -16 -6 -18 -82 -18 -70 0 -86 3 -86
15 0 8 -7 15 -15 15 -11 0 -15 12 -15 50 0 38 4 50 15 50 8 0 15 9 15 20 0 18
7 20 85 20 78 0 85 -2 85 -20z m160 -30 l0 -50 35 0 35 0 0 50 c0 49 1 50 30
50 17 0 30 -3 31 -7 10 -89 9 -93 -11 -93 -14 0 -20 -7 -20 -21 0 -12 -4 -17
-11 -14 -6 4 -13 -2 -16 -14 -8 -30 -73 -31 -73 -1 0 13 -5 18 -15 14 -10 -4
-15 0 -15 14 0 12 -8 22 -17 24 -12 2 -18 14 -20 38 -3 51 3 60 37 60 29 0 30
-1 30 -50z m370 30 c0 -11 7 -20 15 -20 10 0 15 -10 15 -30 l0 -30 -79 0 c-73
0 -104 -10 -87 -28 4 -3 32 -7 64 -8 74 -2 72 -2 72 -19 0 -12 -16 -15 -85
-15 -66 0 -85 3 -85 14 0 8 -7 16 -15 20 -10 4 -15 20 -15 51 0 33 4 45 15 45
8 0 15 9 15 20 0 18 7 20 85 20 78 0 85 -2 85 -20z m530 0 c0 -11 7 -20 15
-20 11 0 15 -12 15 -51 0 -33 -4 -48 -11 -44 -6 4 -13 -2 -16 -14 -5 -19 -12
-21 -88 -21 -76 0 -83 2 -88 21 -3 12 -10 18 -16 14 -7 -4 -11 11 -11 44 0 39
4 51 15 51 8 0 15 9 15 20 0 18 7 20 85 20 78 0 85 -2 85 -20z m260 4 c0 -9 9
-18 20 -21 14 -4 20 -14 20 -33 0 -19 -6 -29 -20 -33 -11 -3 -20 -12 -20 -20
0 -11 -14 -14 -62 -13 l-63 1 -3 -32 c-3 -30 -6 -33 -38 -33 l-34 0 0 93 c0
52 3 97 7 100 3 4 48 7 100 7 78 0 93 -2 93 -16z m270 -4 c0 -11 7 -20 15 -20
10 0 15 -10 15 -30 l0 -30 -78 0 c-83 0 -94 -3 -85 -26 4 -10 15 -12 44 -8 48
8 89 -2 89 -21 0 -12 -17 -15 -85 -15 -78 0 -85 2 -85 20 0 13 -5 18 -15 14
-12 -5 -15 4 -15 45 0 39 4 51 15 51 8 0 15 9 15 20 0 18 7 20 85 20 78 0 85
-2 85 -20z m163 0 c3 -11 12 -20 21 -20 9 0 16 8 16 20 0 17 7 20 45 20 38 0
45 -3 45 -20 0 -17 -7 -20 -45 -20 -33 0 -45 -4 -45 -15 0 -8 -9 -15 -20 -15
-17 0 -20 -7 -20 -50 0 -49 -1 -50 -30 -50 l-30 0 0 85 0 85 29 0 c20 0 30 -6
34 -20z"/>
<path d="M4772 4204 c-234 -51 -385 -223 -455 -517 -20 -83 -22 -119 -22 -372
0 -253 2 -289 22 -372 80 -336 246 -499 543 -532 108 -12 249 -1 327 25 210
70 366 268 430 547 26 112 25 583 -1 687 -57 227 -183 402 -349 486 -120 61
-339 82 -495 48z"/>
<path d="M3790 812 l0 -48 48 1 47 2 3 46 3 47 -50 0 -51 0 0 -48z"/>
<path d="M2730 783 c0 -15 8 -18 48 -18 34 1 47 5 47 15 0 11 -14 16 -47 18
-41 3 -48 0 -48 -15z"/>
<path d="M4052 848 c3 -7 25 -14 51 -16 37 -2 47 0 47 12 0 12 -12 16 -51 16
-36 0 -49 -4 -47 -12z"/>
<path d="M4582 848 c3 -7 25 -14 51 -16 37 -2 47 0 47 12 0 12 -12 16 -51 16
-36 0 -49 -4 -47 -12z"/>
<path d="M5117 853 c-4 -7 -3 -52 2 -85 1 -5 21 -8 46 -8 l45 0 0 50 0 50 -44
0 c-25 0 -47 -3 -49 -7z"/>
<path d="M5380 830 c0 -29 1 -30 50 -30 49 0 50 1 50 30 0 29 -1 30 -50 30
-49 0 -50 -1 -50 -30z"/>
<path d="M5646 845 c4 -10 20 -15 50 -15 32 0 44 4 44 15 0 11 -12 15 -50 15
-40 0 -48 -3 -44 -15z"/>
</g>
</svg>
